OpenSim_Sub06_CSStiffKnee_GRF.mot
version=1
nRows=28
nColumns=19
inDegrees=no
endheader
time	lFx	lFy	lFz	lCOPx	lCOPy	lCOPz	rFx	rFy	rFz	rCOPx	rCOPy	rCOPz	lMx	lMy	lMz	rMx	rMy	rMz
35.82000000	54.31735006	606.32788466	83.32053492	0.65310778	0	-0.66338650	-0.85710916	-5.65595554	0.51989210	-0.02691895	0	0.00992323	0	-13.99266912	0	0	-0.00616214	-0.00000000
35.83000000	57.35552859	597.83016456	82.82078343	0.64835353	0	-0.66331332	-1.46630391	-4.81261080	0.65933765	0.02572037	0	-0.00845135	0	-14.01328394	0	0	-0.05055125	-0.00000000
35.84000000	60.42027702	586.18404370	81.97456091	0.64368758	0	-0.66319070	-1.32003206	8.91645065	0.09897293	0.18074852	0	-0.06347925	0	-14.02404638	0	0	-0.13126322	0.00000000
35.85000000	63.43835252	570.23694677	80.54278401	0.63930560	0	-0.66301289	0.02543849	50.07844092	-2.14211601	0.45535635	0	-0.16212780	0	-14.01442054	0	0	-0.20983186	-0.00000000
35.86000000	66.01248751	549.31798754	78.25605239	0.63539619	0	-0.66269762	-3.41450015	134.91498515	-5.80209191	0.73439718	0	-0.26417559	0	-13.93112461	0	0	-0.18354628	0.00000000
35.87000000	67.82504944	522.73132856	74.69002892	0.63185277	0	-0.66210615	-20.42754542	265.32467464	-11.63668054	0.89333981	0	-0.32407285	0	-13.72809545	0	0	-0.09170493	0.00000000
35.88000000	68.58183279	489.34092203	69.23306474	0.62840612	0	-0.66106074	-50.40493404	419.44866651	-23.12844591	0.94724960	0	-0.34530029	0	-13.30173820	0	0	0.00322838	0.00000000
35.89000000	67.84069996	448.57510775	61.44626946	0.62524806	0	-0.65949571	-80.11781531	560.22698042	-36.42403989	0.95031977	0	-0.34594721	0	-12.46335260	0	0	0.19108268	-0.00000000
35.90000000	65.15137246	401.14281908	51.49783442	0.62298225	0	-0.65777355	-98.99413960	653.34087130	-48.77470229	0.93859420	0	-0.33993213	0	-11.09737531	0	0	0.33422878	0.00000000
35.91000000	60.25031389	348.62273242	40.17324226	0.62243907	0	-0.65684088	-107.02313812	686.90992779	-58.99262711	0.92699302	0	-0.33358772	0	-9.30161496	0	0	0.30168988	-0.00000000
35.92000000	53.13046065	293.02060109	28.98569379	0.62482611	0	-0.65780139	-106.04208350	674.59413560	-68.75603078	0.91898854	0	-0.32841555	0	-7.56556915	0	0	0.20949825	0.00000000
35.93000000	44.49984371	236.44033303	19.33390413	0.63143086	0	-0.66057745	-99.24277037	641.97088838	-79.65787706	0.91402425	0	-0.32414347	0	-6.26048615	0	0	-0.00362582	0.00000000
35.94000000	35.45868502	181.21253186	11.94267689	0.64049543	0	-0.66091312	-90.25045281	609.84119531	-91.29851704	0.91077265	0	-0.32036661	0	-5.41945978	0	0	-0.37069946	0
35.95000000	26.44295343	130.35053873	6.87355310	0.64249733	0	-0.64639313	-81.33573559	588.37516153	-101.75258886	0.90850286	0	-0.31697131	0	-4.92371423	0	0	-0.88745749	0
35.96000000	17.59977212	87.27007792	3.77166734	0.61713696	0	-0.59488218	-73.93922799	579.66991083	-109.03972515	0.90637586	0	-0.31411342	0	-4.52591516	0	0	-1.45619999	0
35.97000000	9.28934232	54.62312597	1.90222735	0.53822769	0	-0.48526869	-68.49482338	582.41002577	-113.49267826	0.90359257	0	-0.31205615	0	-3.80248320	0	0	-1.86494494	0
35.98000000	2.39456523	32.60939325	0.77182617	0.40439303	0	-0.33053068	-64.72436970	594.24221366	-114.91376111	0.90005011	0	-0.31083872	0	-2.67718956	0	0	-2.00130930	0
35.99000000	-1.92582819	18.57154330	0.07442761	0.25824288	0	-0.18560548	-61.79996688	611.25773951	-112.34471716	0.89539569	0	-0.31033004	0	-1.57688036	0	0	-1.95263990	-0.00000000
36	-2.84535718	8.95122398	-0.74095048	0.12597864	0	-0.07736414	-59.23671429	629.37215166	-107.73389334	0.88996161	0	-0.31036421	0	-0.70751438	0	0	-1.72130482	0.00000000
36.01000000	-0.81539032	1.70088517	-2.07081849	0.03436322	0	-0.01396484	-56.64504418	645.36669614	-102.16341453	0.88429983	0	-0.31060678	0	-0.15965136	0	0	-1.44939978	0
36.02000000	1.78933344	-2.80197014	-3.22835703	-0.00550288	0	0.00913731	-53.52845133	657.30533231	-96.67976957	0.87860683	0	-0.31076780	0	0.05779790	0	0	-1.22662310	0
36.03000000	3.35236672	-4.58221635	-3.60005419	-0.01350142	0	0.01105378	-49.49849648	664.72901943	-92.47019203	0.87278899	0	-0.31073979	0	0.08872831	0	0	-1.01278265	0
36.04000000	3.91922827	-4.76797241	-3.72320357	-0.00944020	0	0.00650724	-44.68815247	668.01955681	-89.77611525	0.86681600	0	-0.31048922	0	0.05633347	0	0	-0.86994843	-0.00000000
36.05000000	3.93630662	-4.35992988	-3.63267782	-0.00405468	0	0.00233419	-39.83716809	667.69716326	-88.14079469	0.86080836	0	-0.31002788	0	0.02204395	0	0	-0.83150245	0
36.06000000	3.77430176	-3.91869160	-3.52079574	-0.00078127	0	0.00016686	-35.62364953	664.52583557	-87.10502249	0.85488834	0	-0.30944665	0	0.00292624	0	0	-0.77564984	-0.00000000
36.07000000	3.61020847	-3.61879739	-3.47697253	0.00043906	0	-0.00048097	-32.23856506	659.60024069	-86.22499741	0.84929590	0	-0.30881771	0	-0.00345290	0	0	-0.75151226	0
36.08000000	3.48375752	-3.43911778	-3.46036536	0.00056022	0	-0.00043200	-29.41187589	653.76099863	-85.34292104	0.84398086	0	-0.30814388	0	-0.00355712	0	0	-0.80541969	0
36.09000000	3.42083692	-3.32457367	-3.55374378	0.00033614	0	-0.00022165	-26.76261897	647.47746505	-84.74317915	0.83883206	0	-0.30745647	0	-0.00195889	0	0	-0.85092657	0.00000000
